<svg data-v-423bf9ae="" xmlns="http://www.w3.org/2000/svg" viewBox="0 0 423 90" class="iconLeft"><!----><!----><defs data-v-423bf9ae=""><linearGradient data-v-423bf9ae="" gradientTransform="rotate(25)" id="92a064a0-7648-46e6-ba1e-8e045b93f990" x1="0%" y1="0%" x2="100%" y2="0%"><stop data-v-423bf9ae="" offset="0%" style="stop-color: rgb(218, 218, 218); stop-opacity: 1;"></stop><stop data-v-423bf9ae="" offset="100%" style="stop-color: rgb(15, 143, 185); stop-opacity: 1;"></stop></linearGradient></defs><g data-v-423bf9ae="" id="27131e63-b59b-4c11-9162-80b124c9ebe0" fill="url(#92a064a0-7648-46e6-ba1e-8e045b93f990)" transform="matrix(6.128702640533447,0,0,6.128702640533447,101.72626495361328,-3.0796737670898438)"><path d="M1.35 12.62L1.35 2.95L4.29 2.95L4.29 2.95Q5.17 2.95 5.89 3.28L5.89 3.28L5.89 3.28Q6.62 3.62 7.04 4.24L7.04 4.24L7.04 4.24Q7.46 4.87 7.46 5.71L7.46 5.71L7.46 5.71Q7.46 6.33 7.22 6.84L7.22 6.84L7.22 6.84Q6.97 7.36 6.52 7.71L6.52 7.71L6.52 7.71Q6.07 8.06 5.48 8.22L5.48 8.22L8.13 12.62L6.53 12.62L4.13 8.37L2.74 8.37L2.74 12.62L1.35 12.62ZM2.75 7.18L4.45 7.18L4.45 7.18Q5.20 7.14 5.65 6.76L5.65 6.76L5.65 6.76Q6.09 6.38 6.09 5.72L6.09 5.72L6.09 5.72Q6.09 5.25 5.87 4.90L5.87 4.90L5.87 4.90Q5.65 4.56 5.24 4.38L5.24 4.38L5.24 4.38Q4.83 4.19 4.30 4.19L4.30 4.19L2.75 4.19L2.75 7.18ZM12.26 12.72L12.26 12.72Q11.20 12.72 10.46 12.24L10.46 12.24L10.46 12.24Q9.73 11.76 9.36 10.97L9.36 10.97L9.36 10.97Q9.00 10.18 9.00 9.22L9.00 9.22L9.00 9.22Q9.00 8.29 9.35 7.47L9.35 7.47L9.35 7.47Q9.70 6.66 10.41 6.16L10.41 6.16L10.41 6.16Q11.12 5.66 12.14 5.66L12.14 5.66L12.14 5.66Q13.22 5.66 13.90 6.16L13.90 6.16L13.90 6.16Q14.57 6.65 14.87 7.42L14.87 7.42L14.87 7.42Q15.16 8.19 15.16 9.04L15.16 9.04L15.16 9.04Q15.16 9.41 15.12 9.63L15.12 9.63L10.40 9.63L10.40 9.63Q10.45 10.48 10.91 11.01L10.91 11.01L10.91 11.01Q11.38 11.54 12.26 11.54L12.26 11.54L12.26 11.54Q12.81 11.54 13.24 11.37L13.24 11.37L13.24 11.37Q13.68 11.20 14.04 10.81L14.04 10.81L14.96 11.58L14.96 11.58Q14.40 12.17 13.74 12.44L13.74 12.44L13.74 12.44Q13.09 12.72 12.26 12.72L12.26 12.72ZM10.40 8.62L13.88 8.62L13.88 8.62Q13.83 7.79 13.40 7.27L13.40 7.27L13.40 7.27Q12.96 6.76 12.13 6.76L12.13 6.76L12.13 6.76Q11.34 6.76 10.91 7.28L10.91 7.28L10.91 7.28Q10.47 7.80 10.40 8.62L10.40 8.62ZM18.47 12.74L18.47 12.74Q17.79 12.74 17.26 12.49L17.26 12.49L17.26 12.49Q16.73 12.24 16.43 11.75L16.43 11.75L16.43 11.75Q16.13 11.27 16.13 10.61L16.13 10.61L16.13 10.61Q16.13 9.58 16.88 9.10L16.88 9.10L16.88 9.10Q17.63 8.62 19.00 8.62L19.00 8.62L20.67 8.62L20.67 8.62Q20.67 7.77 20.29 7.28L20.29 7.28L20.29 7.28Q19.91 6.79 19.14 6.79L19.14 6.79L19.14 6.79Q18.54 6.79 18.10 7.07L18.10 7.07L18.10 7.07Q17.66 7.36 17.38 7.79L17.38 7.79L16.39 7.05L16.39 7.05Q16.88 6.36 17.55 6.00L17.55 6.00L17.55 6.00Q18.22 5.63 19.11 5.63L19.11 5.63L19.11 5.63Q19.99 5.63 20.62 5.98L20.62 5.98L20.62 5.98Q21.25 6.34 21.58 6.97L21.58 6.97L21.58 6.97Q21.91 7.60 21.91 8.44L21.91 8.44L21.91 12.61L20.81 12.61L20.74 11.45L20.74 11.45Q20.36 12.13 19.77 12.43L19.77 12.43L19.77 12.43Q19.19 12.74 18.47 12.74L18.47 12.74ZM18.64 11.62L18.64 11.62Q19.22 11.62 19.67 11.33L19.67 11.33L19.67 11.33Q20.13 11.03 20.40 10.56L20.40 10.56L20.40 10.56Q20.66 10.10 20.67 9.60L20.67 9.60L19.10 9.60L19.10 9.60Q18.30 9.60 17.90 9.86L17.90 9.86L17.90 9.86Q17.49 10.13 17.49 10.65L17.49 10.65L17.49 10.65Q17.49 11.12 17.80 11.37L17.80 11.37L17.80 11.37Q18.12 11.62 18.64 11.62L18.64 11.62ZM28.23 2.95L29.56 2.95L29.56 12.61L28.30 12.61L28.26 11.75L28.26 11.75Q27.91 12.24 27.38 12.49L27.38 12.49L27.38 12.49Q26.86 12.74 26.19 12.74L26.19 12.74L26.19 12.74Q25.31 12.74 24.66 12.26L24.66 12.26L24.66 12.26Q24.02 11.79 23.69 10.98L23.69 10.98L23.69 10.98Q23.35 10.17 23.35 9.19L23.35 9.19L23.35 9.19Q23.35 8.21 23.69 7.40L23.69 7.40L23.69 7.40Q24.02 6.59 24.66 6.11L24.66 6.11L24.66 6.11Q25.30 5.63 26.17 5.63L26.17 5.63L26.17 5.63Q26.82 5.63 27.35 5.88L27.35 5.88L27.35 5.88Q27.88 6.13 28.23 6.59L28.23 6.59L28.23 2.95ZM26.52 11.58L26.52 11.58Q27.14 11.58 27.55 11.26L27.55 11.26L27.55 11.26Q27.95 10.94 28.14 10.40L28.14 10.40L28.14 10.40Q28.33 9.86 28.33 9.19L28.33 9.19L28.33 9.19Q28.33 8.52 28.14 7.98L28.14 7.98L28.14 7.98Q27.95 7.44 27.55 7.12L27.55 7.12L27.55 7.12Q27.14 6.80 26.52 6.80L26.52 6.80L26.52 6.80Q25.92 6.80 25.50 7.13L25.50 7.13L25.50 7.13Q25.09 7.45 24.90 7.99L24.90 7.99L24.90 7.99Q24.70 8.53 24.70 9.19L24.70 9.19L24.70 9.19Q24.70 9.85 24.90 10.39L24.90 10.39L24.90 10.39Q25.09 10.94 25.50 11.26L25.50 11.26L25.50 11.26Q25.92 11.58 26.52 11.58L26.52 11.58ZM34.48 12.74L34.48 12.74Q33.50 12.74 32.73 12.26L32.73 12.26L32.73 12.26Q31.97 11.78 31.55 10.96L31.55 10.96L31.55 10.96Q31.12 10.14 31.12 9.17L31.12 9.17L31.12 9.17Q31.12 8.20 31.54 7.39L31.54 7.39L31.54 7.39Q31.96 6.58 32.73 6.11L32.73 6.11L32.73 6.11Q33.50 5.63 34.48 5.63L34.48 5.63L34.48 5.63Q35.46 5.63 36.23 6.11L36.23 6.11L36.23 6.11Q37.00 6.58 37.42 7.40L37.42 7.40L37.42 7.40Q37.85 8.21 37.85 9.17L37.85 9.17L37.85 9.17Q37.85 10.14 37.42 10.96L37.42 10.96L37.42 10.96Q37.00 11.78 36.23 12.26L36.23 12.26L36.23 12.26Q35.46 12.74 34.48 12.74L34.48 12.74ZM34.49 11.62L34.49 11.62Q35.16 11.62 35.60 11.28L35.60 11.28L35.60 11.28Q36.05 10.94 36.27 10.38L36.27 10.38L36.27 10.38Q36.48 9.83 36.48 9.17L36.48 9.17L36.48 9.17Q36.48 8.52 36.27 7.97L36.27 7.97L36.27 7.97Q36.05 7.42 35.60 7.09L35.60 7.09L35.60 7.09Q35.16 6.76 34.49 6.76L34.49 6.76L34.49 6.76Q33.82 6.76 33.37 7.09L33.37 7.09L33.37 7.09Q32.92 7.42 32.71 7.97L32.71 7.97L32.71 7.97Q32.49 8.52 32.49 9.17L32.49 9.17L32.49 9.17Q32.49 9.83 32.71 10.39L32.71 10.39L32.71 10.39Q32.92 10.94 33.37 11.28L33.37 11.28L33.37 11.28Q33.82 11.62 34.49 11.62L34.49 11.62ZM41.97 12.74L41.97 12.74Q40.97 12.74 40.26 12.25L40.26 12.25L40.26 12.25Q39.56 11.76 39.20 10.95L39.20 10.95L39.20 10.95Q38.85 10.14 38.85 9.20L38.85 9.20L38.85 9.20Q38.85 8.26 39.20 7.45L39.20 7.45L39.20 7.45Q39.55 6.63 40.26 6.13L40.26 6.13L40.26 6.13Q40.96 5.63 41.96 5.63L41.96 5.63L41.96 5.63Q42.93 5.63 43.65 6.13L43.65 6.13L43.65 6.13Q44.38 6.62 44.75 7.54L44.75 7.54L43.50 8.05L43.50 8.05Q43.35 7.49 42.94 7.14L42.94 7.14L42.94 7.14Q42.53 6.80 41.96 6.80L41.96 6.80L41.96 6.80Q41.35 6.80 40.95 7.15L40.95 7.15L40.95 7.15Q40.56 7.50 40.38 8.04L40.38 8.04L40.38 8.04Q40.20 8.59 40.20 9.20L40.20 9.20L40.20 9.20Q40.20 9.82 40.37 10.36L40.37 10.36L40.37 10.36Q40.55 10.90 40.95 11.24L40.95 11.24L40.95 11.24Q41.34 11.58 41.96 11.58L41.96 11.58L41.96 11.58Q42.52 11.58 42.94 11.25L42.94 11.25L42.94 11.25Q43.35 10.91 43.50 10.36L43.50 10.36L44.68 10.83L44.68 10.83Q44.36 11.73 43.65 12.24L43.65 12.24L43.65 12.24Q42.94 12.74 41.97 12.74L41.97 12.74ZM46.18 12.61L46.18 2.95L47.50 2.95L47.50 9.06L50.33 5.78L52.02 5.78L49.64 8.35L52.39 12.61L50.82 12.61L48.77 9.19L47.50 10.60L47.50 12.61L46.18 12.61Z"></path></g><defs data-v-423bf9ae=""><linearGradient data-v-423bf9ae="" gradientTransform="rotate(25)" id="477788ed-7393-4621-89ea-3fd22807d659" x1="0%" y1="0%" x2="100%" y2="0%"><stop data-v-423bf9ae="" offset="0%" style="stop-color: rgb(15, 143, 185); stop-opacity: 1;"></stop><stop data-v-423bf9ae="" offset="100%" style="stop-color: rgb(218, 218, 218); stop-opacity: 1;"></stop></linearGradient></defs><g data-v-423bf9ae="" id="12eaeceb-b43c-4ae6-9c7b-81dfe225d33b" transform="matrix(1.5,0,0,1.5,-30,-30)" stroke="none" fill="url(#477788ed-7393-4621-89ea-3fd22807d659)"><path d="M35 65v-5h20v5zm0-12.5v-5h30v5zM35 40v-5h30v5zm-5 40h2.45C35 80 35 80 35 77.5s0-2.5-2.55-2.5H30c-3.15 0-5-1.85-5-5v-2.45C25 65 25 65 22.5 65S20 65 20 67.55V70c0 6.65 3.35 10 10 10zm36.9 0H70c6.65 0 10-3.35 10-10v-2.45C80 65 80 65 77.5 65S75 65 75 67.55V70c0 3.15-1.85 5-5 5h-2.45C65 75 65 75 65 77.5s0 2.5 1.9 2.5zM22.5 35c2.5 0 2.5 0 2.5-2.55V30c0-3.15 1.85-5 5-5h2.45C35 25 35 25 35 22.5s0-2.5-2.55-2.5H30c-6.65 0-10 3.35-10 10v2.45C20 35 20 35 22.5 35zm55 0c2.5 0 2.5 0 2.5-2.55V30c0-6.65-3.35-10-10-10h-2.45C65 20 65 20 65 22.5s0 2.5 2.55 2.5H70c3.15 0 5 1.85 5 5v2.45C75 35 75 35 77.5 35zm0 0"></path></g><!----></svg>